<svg width="139" height="139" viewBox="0 0 139 139" fill="none" xmlns="http://www.w3.org/2000/svg">
<path d="M106.682 41.816C103.144 33.6845 97.0363 26.9377 89.2962 22.6093C81.5561 18.2809 72.6103 16.6097 63.8297 17.8519C55.049 19.0941 46.9177 23.1811 40.682 29.4866C34.4463 35.7921 30.4501 43.9683 29.3057 52.7623C24.4536 53.9441 20.1132 56.6622 16.9315 60.5115C13.7499 64.3608 11.8972 69.1352 11.6498 74.1231C11.4024 79.1109 12.7733 84.0452 15.5584 88.1905C18.3435 92.3358 22.3935 95.4702 27.1049 97.1264C27.7056 97.3115 28.3297 97.409 28.9582 97.416C30.4943 97.6618 32.065 97.2873 33.325 96.3749C34.5849 95.4626 35.4308 94.0871 35.6766 92.551C35.9223 91.015 35.5478 89.4442 34.6355 88.1843C33.7231 86.9244 32.3476 86.0785 30.8116 85.8327C28.6276 85.0443 26.7309 83.6178 25.3677 81.7382C24.0045 79.8586 23.2376 77.6127 23.1666 75.2919C23.1666 72.2198 24.3869 69.2735 26.5592 67.1012C28.7315 64.9289 31.6778 63.7085 34.7499 63.7085C36.2859 63.7085 37.7591 63.0983 38.8452 62.0122C39.9314 60.926 40.5416 59.4529 40.5416 57.9169C40.5564 51.0669 42.9989 44.444 47.4352 39.2247C51.8715 34.0055 58.0144 30.5278 64.7724 29.4095C71.5305 28.2913 78.4661 29.6049 84.3472 33.117C90.2283 36.6291 94.674 42.1122 96.8945 48.5923C97.2255 49.5875 97.8206 50.4742 98.6163 51.1576C99.4119 51.841 100.378 52.2956 101.412 52.4727C104.895 53.1031 108.102 54.782 110.604 57.2849C113.107 59.7878 114.785 62.9952 115.415 66.4781C116.045 69.9609 115.596 73.5531 114.129 76.7739C112.661 79.9946 110.245 82.6905 107.204 84.5006C105.867 85.2686 104.891 86.5361 104.489 88.0241C104.087 89.5121 104.293 91.0988 105.061 92.4352C105.829 93.7715 107.096 94.7481 108.584 95.15C110.072 95.5518 111.659 95.3461 112.995 94.5781C117.387 92.0292 121.031 88.3705 123.562 83.969C126.093 79.5674 127.422 74.5777 127.417 69.5002C127.399 63.2691 125.372 57.2099 121.637 52.2225C117.901 47.2351 112.657 43.5856 106.682 41.816V41.816ZM85.6586 67.531C83.4633 68.0086 81.1915 68.0128 78.9944 67.5434C76.7973 67.0741 74.7255 66.1419 72.917 64.8089C71.9251 64.0841 70.7284 63.6935 69.4999 63.6935C68.2714 63.6935 67.0747 64.0841 66.0828 64.8089C64.276 66.1452 62.2042 67.0795 60.0066 67.549C57.8089 68.0185 55.5362 68.0124 53.3411 67.531C52.4952 67.3483 51.6191 67.3576 50.7772 67.558C49.9353 67.7585 49.149 68.1451 48.4761 68.6894C47.8118 69.2283 47.275 69.9077 46.9045 70.6788C46.534 71.4499 46.3389 72.2935 46.3332 73.1489V92.6669C46.3287 96.82 47.289 100.918 49.1383 104.636C50.9876 108.355 53.6754 111.593 56.9899 114.096L66.0828 120.756C67.0747 121.481 68.2714 121.872 69.4999 121.872C70.7284 121.872 71.9251 121.481 72.917 120.756L82.0099 114.038C85.3265 111.551 88.0169 108.323 89.8669 104.613C91.7169 100.903 92.6756 96.8126 92.6666 92.6669V73.1489C92.6609 72.2935 92.4658 71.4499 92.0953 70.6788C91.7248 69.9077 91.188 69.2283 90.5236 68.6894C89.8508 68.1451 89.0645 67.7585 88.2226 67.558C87.3807 67.3576 86.5046 67.3483 85.6586 67.531V67.531ZM81.0832 92.6669C81.0322 94.9053 80.4865 97.1048 79.4852 99.1074C78.4838 101.11 77.0517 102.866 75.2916 104.25L69.4999 108.42L63.7082 104.25C61.948 102.866 60.5159 101.11 59.5146 99.1074C58.5133 97.1048 57.9675 94.9053 57.9166 92.6669V79.4619C61.9673 79.2798 65.9256 78.1913 69.4999 76.2764C73.0741 78.1913 77.0324 79.2798 81.0832 79.4619V92.6669Z" fill="#1E266D"/>
</svg>
