<svg width="111" height="139" viewBox="0 0 111 139" fill="none" xmlns="http://www.w3.org/2000/svg">
<path d="M108.433 11.4597C107.627 10.8063 106.685 10.3423 105.677 10.1016C104.668 9.86102 103.619 9.84994 102.606 10.0692C95.1924 11.6261 87.5397 11.646 80.1186 10.1275C72.6975 8.60906 65.6651 5.58447 59.4544 1.23996C58.2931 0.43262 56.9134 0 55.5 0C54.0866 0 52.7069 0.43262 51.5456 1.23996C45.3349 5.58447 38.3025 8.60906 30.8814 10.1275C23.4603 11.646 15.8076 11.6261 8.39441 10.0692C7.38111 9.84994 6.33165 9.86102 5.32318 10.1016C4.31472 10.3423 3.37288 10.8063 2.56691 11.4597C1.76202 12.114 1.11365 12.9407 0.669455 13.8791C0.225257 14.8175 -0.00348394 15.8437 4.0109e-05 16.8824V68.6761C-0.00612757 78.6437 2.36415 88.4687 6.9135 97.3327C11.4628 106.197 18.0596 113.843 26.1544 119.636L51.4763 137.711C52.6512 138.549 54.0577 139 55.5 139C56.9423 139 58.3488 138.549 59.5237 137.711L84.8456 119.636C92.9404 113.843 99.5372 106.197 104.087 97.3327C108.636 88.4687 111.006 78.6437 111 68.6761V16.8824C111.003 15.8437 110.775 14.8175 110.331 13.8791C109.886 12.9407 109.238 12.114 108.433 11.4597ZM97.125 68.6761C97.1303 76.4261 95.2885 84.0652 91.7529 90.9579C88.2173 97.8506 83.0902 103.797 76.7981 108.303L55.5 123.529L34.2019 108.303C27.9098 103.797 22.7827 97.8506 19.2471 90.9579C15.7115 84.0652 13.8697 76.4261 13.875 68.6761V24.8774C28.419 26.1248 42.985 22.7432 55.5 15.2138C68.015 22.7432 82.581 26.1248 97.125 24.8774V68.6761ZM66.1837 52.7556L47.5219 71.5265L41.3475 65.2695C40.0412 63.9604 38.2694 63.2249 36.4219 63.2249C34.5744 63.2249 32.8026 63.9604 31.4963 65.2695C30.1899 66.5786 29.456 68.3542 29.456 70.2056C29.456 72.0569 30.1899 73.8325 31.4963 75.1416L42.5963 86.2651C43.2412 86.9167 44.0085 87.4339 44.8539 87.7868C45.6993 88.1398 46.6061 88.3215 47.5219 88.3215C48.4377 88.3215 49.3445 88.1398 50.1899 87.7868C51.0353 87.4339 51.8026 86.9167 52.4475 86.2651L76.3125 62.5582C77.6188 61.249 78.3527 59.4735 78.3527 57.6221C78.3527 55.7707 77.6188 53.9952 76.3125 52.6861C75.0061 51.3769 73.2343 50.6415 71.3869 50.6415C69.5394 50.6415 67.7676 51.3769 66.4612 52.6861L66.1837 52.7556Z" fill="#1E266D"/>
</svg>
