<svg width="18" height="20" viewBox="0 0 18 20" fill="none" xmlns="http://www.w3.org/2000/svg">
<path d="M17.11 15.49L12 6.73V2H13C13.2652 2 13.5196 1.89464 13.7071 1.70711C13.8947 1.51957 14 1.26522 14 1C14 0.734784 13.8947 0.48043 13.7071 0.292893C13.5196 0.105357 13.2652 0 13 0H5.00002C4.73481 0 4.48045 0.105357 4.29292 0.292893C4.10538 0.48043 4.00002 0.734784 4.00002 1C4.00002 1.26522 4.10538 1.51957 4.29292 1.70711C4.48045 1.89464 4.73481 2 5.00002 2H6.00002V6.73L0.890023 15.49C0.624567 15.9457 0.483938 16.4634 0.482314 16.9908C0.48069 17.5182 0.618127 18.0367 0.880771 18.494C1.14342 18.9514 1.52199 19.3314 1.97832 19.5958C2.43465 19.8602 2.95263 19.9996 3.48002 20H14.48C15.0074 19.9996 15.5254 19.8602 15.9817 19.5958C16.4381 19.3314 16.8166 18.9514 17.0793 18.494C17.3419 18.0367 17.4794 17.5182 17.4777 16.9908C17.4761 16.4634 17.3355 15.9457 17.07 15.49H17.11ZM7.86002 7.49C7.94822 7.3415 7.99646 7.17268 8.00002 7V2H10V7C10.0019 7.17609 10.0501 7.34857 10.14 7.5L11 9H7.00002L7.86002 7.49ZM15.38 17.49C15.2928 17.6411 15.1675 17.7668 15.0166 17.8545C14.8657 17.9422 14.6945 17.9889 14.52 17.99H3.52002C3.34551 17.9889 3.17431 17.9422 3.02344 17.8545C2.87257 17.7668 2.74728 17.6411 2.66002 17.49C2.57225 17.338 2.52605 17.1655 2.52605 16.99C2.52605 16.8145 2.57225 16.642 2.66002 16.49L5.83002 11H12.18L15.38 16.5C15.4678 16.652 15.514 16.8245 15.514 17C15.514 17.1755 15.4678 17.348 15.38 17.5V17.49ZM7.00002 13C6.80224 13 6.6089 13.0586 6.44445 13.1685C6.28 13.2784 6.15183 13.4346 6.07614 13.6173C6.00046 13.8 5.98065 14.0011 6.01924 14.1951C6.05782 14.3891 6.15306 14.5673 6.29292 14.7071C6.43277 14.847 6.61095 14.9422 6.80493 14.9808C6.99891 15.0194 7.19998 14.9996 7.38271 14.9239C7.56543 14.8482 7.72161 14.72 7.83149 14.5556C7.94137 14.3911 8.00002 14.1978 8.00002 14C8.00002 13.7348 7.89467 13.4804 7.70713 13.2929C7.51959 13.1054 7.26524 13 7.00002 13ZM11 14C10.8022 14 10.6089 14.0586 10.4445 14.1685C10.28 14.2784 10.1518 14.4346 10.0761 14.6173C10.0005 14.8 9.98065 15.0011 10.0192 15.1951C10.0578 15.3891 10.1531 15.5673 10.2929 15.7071C10.4328 15.847 10.611 15.9422 10.8049 15.9808C10.9989 16.0194 11.2 15.9996 11.3827 15.9239C11.5654 15.8482 11.7216 15.72 11.8315 15.5556C11.9414 15.3911 12 15.1978 12 15C12 14.7348 11.8947 14.4804 11.7071 14.2929C11.5196 14.1054 11.2652 14 11 14Z" fill="#1E266D"/>
</svg>
