<svg width="112" height="112" viewBox="0 0 112 112" fill="none" xmlns="http://www.w3.org/2000/svg">
<path d="M102.694 40.9716L24.2986 1.76041C21.2047 0.22002 17.7112 -0.328369 14.2944 0.19001C10.8775 0.708389 7.70367 2.26831 5.20549 4.65709C2.70731 7.04587 1.0064 10.1473 0.334658 13.5384C-0.337082 16.9296 0.0530414 20.4454 1.45184 23.6067L14.8911 53.6873C15.196 54.4146 15.3531 55.1953 15.3531 55.984C15.3531 56.7726 15.196 57.5533 14.8911 58.2806L1.45184 88.3612C0.31342 90.9196 -0.167842 93.7219 0.0517857 96.5136C0.271414 99.3053 1.18497 101.998 2.70943 104.347C4.23389 106.695 6.32092 108.626 8.78085 109.962C11.2408 111.299 13.9956 111.999 16.795 112C19.417 111.974 21.9999 111.361 24.3546 110.207L102.75 70.9963C105.531 69.5969 107.869 67.4521 109.502 64.8013C111.135 62.1505 112 59.0978 112 55.984C112 52.8701 111.135 49.8174 109.502 47.1666C107.869 44.5158 105.531 42.371 102.75 40.9716H102.694ZM97.7106 60.9694L19.3149 100.181C18.2854 100.675 17.1295 100.843 16.002 100.661C14.8745 100.48 13.8295 99.9583 13.0069 99.1659C12.1843 98.3735 11.6236 97.3485 11.3999 96.2283C11.1762 95.1081 11.3002 93.9462 11.7553 92.8985L25.1385 62.8179C25.3118 62.4162 25.4614 62.0047 25.5865 61.5856H64.1684C65.6536 61.5856 67.0779 60.9954 68.128 59.9449C69.1782 58.8944 69.7681 57.4696 69.7681 55.984C69.7681 54.4983 69.1782 53.0735 68.128 52.023C67.0779 50.9725 65.6536 50.3823 64.1684 50.3823H25.5865C25.4614 49.9632 25.3118 49.5517 25.1385 49.15L11.7553 19.0694C11.3002 18.0217 11.1762 16.8598 11.3999 15.7396C11.6236 14.6194 12.1843 13.5944 13.0069 12.802C13.8295 12.0096 14.8745 11.4878 16.002 11.3064C17.1295 11.125 18.2854 11.2928 19.3149 11.7873L97.7106 50.9985C98.6279 51.4686 99.3976 52.1828 99.9351 53.0624C100.473 53.942 100.757 54.953 100.757 55.984C100.757 57.0149 100.473 58.0259 99.9351 58.9055C99.3976 59.7851 98.6279 60.4993 97.7106 60.9694V60.9694Z" fill="white"/>
</svg>
