<svg width="108" height="108" viewBox="0 0 108 108" fill="none" xmlns="http://www.w3.org/2000/svg">
<path d="M106.484 98.8952L86.4615 79.0199C94.2334 69.3221 97.9971 57.0129 96.9788 44.6232C95.9604 32.2336 90.2374 20.7053 80.9865 12.4088C71.7356 4.11227 59.66 -0.321836 47.2426 0.0182062C34.8252 0.358249 23.0099 5.4466 14.2262 14.237C5.44246 23.0274 0.357977 34.8516 0.0181924 47.2785C-0.321592 59.7053 4.10915 71.7901 12.3994 81.0481C20.6896 90.306 32.2091 96.0334 44.5894 97.0525C56.9696 98.0716 69.2695 94.305 78.9599 86.5272L98.8201 106.402C99.3218 106.909 99.9187 107.31 100.576 107.585C101.234 107.859 101.939 108 102.652 108C103.364 108 104.07 107.859 104.727 107.585C105.385 107.31 105.982 106.909 106.484 106.402C107.456 105.395 108 104.049 108 102.649C108 101.248 107.456 99.9023 106.484 98.8952V98.8952ZM48.6839 86.5272C41.2122 86.5272 33.9083 84.3099 27.6958 80.1557C21.4834 76.0014 16.6413 70.0969 13.782 63.1887C10.9227 56.2805 10.1746 48.679 11.6323 41.3453C13.0899 34.0116 16.6879 27.2752 21.9712 21.9879C27.2544 16.7006 33.9858 13.0999 41.3139 11.6411C48.642 10.1823 56.2378 10.931 63.1408 13.7925C70.0437 16.654 75.9437 21.4997 80.0948 27.7169C84.2458 33.9341 86.4615 41.2435 86.4615 48.7209C86.4615 58.7477 82.4813 68.3639 75.3967 75.454C68.312 82.544 58.7031 86.5272 48.6839 86.5272V86.5272Z" fill="#1E266D"/>
</svg>
