<svg width="139" height="139" viewBox="0 0 139 139" fill="none" xmlns="http://www.w3.org/2000/svg">
<path d="M80.6761 118.746C80.6763 117.897 80.8632 117.058 81.2237 116.288C81.5842 115.519 82.1094 114.839 82.7622 114.295C83.415 113.752 84.1793 113.359 85.001 113.144C85.8227 112.928 86.6816 112.897 87.517 113.05C95.0987 114.442 104.671 114.651 107.217 107.502C109.436 101.965 113.112 97.1321 117.855 93.5151C118.194 93.331 118.516 93.1191 118.82 92.8816C119.235 91.7866 119.972 90.8431 120.934 90.1756C121.897 89.5082 123.039 89.1482 124.21 89.143H124.238C125.769 89.1425 127.239 89.7486 128.324 90.8288C129.409 91.9089 130.023 93.3751 130.03 94.9064C130.052 99.6291 125.333 102.655 123.418 103.679C121.16 105.947 119.346 108.617 118.067 111.552C115.958 117.479 109.827 126.472 92.2029 125.313C92.1971 125.516 92.1916 125.709 92.1888 125.884L92.1633 127.434C92.1633 128.97 91.5531 130.443 90.467 131.529C89.3808 132.615 87.9077 133.225 86.3717 133.225C84.8356 133.225 83.3625 132.615 82.2763 131.529C81.1902 130.443 80.58 128.97 80.58 127.434L80.6082 125.59C80.6365 124.492 80.6761 122.903 80.6761 118.746ZM18.8964 31.1412C18.7126 30.4172 18.5315 29.6141 18.3732 28.7091C17.4365 22.2548 18.2531 15.6674 20.7374 9.63715C21.0509 8.85101 21.5325 8.14295 22.1485 7.5626C22.7645 6.98225 23.5 6.54366 24.3035 6.27758C26.3653 5.58189 33.9779 4.21314 48.5363 13.5172C60.6377 10.6694 73.235 10.6694 85.3365 13.5172C99.8355 4.34942 107.409 5.59347 109.451 6.24955C110.274 6.50485 111.029 6.94111 111.662 7.52637C112.295 8.11162 112.789 8.83104 113.107 9.63188C115.642 15.7779 116.45 22.4997 115.443 29.0713C115.302 29.8122 115.149 30.4966 114.991 31.1244C119.789 37.5151 122.344 45.3103 122.261 53.3012C122.277 55.0841 122.195 56.8665 122.015 58.6404C120.081 85.2968 102.706 93.2999 90.5995 96.0488C90.8511 96.7727 91.0802 97.5475 91.2838 98.3677C91.6467 99.8579 91.4039 101.431 90.6085 102.743C89.8131 104.054 88.5302 104.996 87.041 105.363C85.5518 105.73 83.9779 105.491 82.6644 104.7C81.3509 103.908 80.405 102.627 80.0342 101.139C79.6657 99.2093 78.7211 97.4366 77.325 96.0544C76.4808 95.3153 75.8696 94.3469 75.5657 93.2668C75.2618 92.1868 75.2784 91.0417 75.6134 89.9709C75.9483 88.9001 76.5873 87.9497 77.4525 87.2353C78.3176 86.521 79.3718 86.0735 80.4866 85.9472C100.492 83.6622 109.176 75.5121 110.483 57.5772C110.628 56.1566 110.693 54.7291 110.678 53.3013C110.771 47.6061 108.889 42.0543 105.353 37.5891C104.998 37.1236 104.619 36.6762 104.219 36.2486C103.51 35.4552 103.033 34.4817 102.841 33.4351C102.649 32.3885 102.749 31.3091 103.13 30.3156C103.521 29.2704 103.822 28.1937 104.029 27.0973C104.501 23.9798 104.346 20.7994 103.574 17.7424C98.5404 19.1641 93.8029 21.4783 89.5872 24.5747C88.8901 25.0391 88.1013 25.3481 87.2742 25.4808C86.4472 25.6135 85.6013 25.5669 84.7938 25.344C73.0882 22.1672 60.7473 22.1692 49.0427 25.3498C48.2309 25.5724 47.3805 25.6164 46.5501 25.4787C45.7197 25.3411 44.9289 25.025 44.2324 24.5523C40.0365 21.443 35.3188 19.1081 30.3018 17.6577C29.5329 20.6413 29.3609 23.7474 29.7956 26.7977C30.0054 27.9997 30.3331 29.1781 30.7741 30.3157C31.1553 31.3092 31.2553 32.3886 31.0632 33.4352C30.8711 34.4818 30.3944 35.4553 29.6853 36.2488C29.2385 36.7521 28.7917 37.2951 28.3901 37.8041C24.8787 42.1937 23.029 47.6817 23.1667 53.3012C23.1562 54.8048 23.2289 56.3078 23.3844 57.8033C24.6598 75.5007 33.3784 83.6566 53.4768 85.9472C54.5919 86.0742 55.6461 86.5225 56.5112 87.2375C57.3763 87.9525 58.015 88.9035 58.3497 89.9748C58.6843 91.0462 58.7005 92.1916 58.3961 93.2719C58.0918 94.3522 57.4802 95.3209 56.6356 96.06C55.1956 97.4791 54.249 99.3228 53.9349 101.32C53.5435 102.87 53.3637 104.467 53.4004 106.065V119.583C53.4571 123.333 53.4571 126.144 53.4571 127.433C53.4571 128.969 52.8469 130.443 51.7608 131.529C50.6746 132.615 49.2015 133.225 47.6654 133.225C46.1294 133.225 44.6562 132.615 43.5701 131.529C42.484 130.443 41.8738 128.969 41.8738 127.433C41.8738 126.178 41.8738 123.423 41.8172 119.674V106.065C41.7705 103.504 42.0721 100.949 42.7137 98.4694C42.8971 97.6554 43.1217 96.8513 43.3867 96.0601C34.5761 94.5964 26.5708 90.0538 20.7956 83.2409C15.0205 76.4279 11.8503 67.7867 11.8493 58.8554C11.6584 57.0103 11.5697 55.1561 11.5833 53.3012C11.4548 45.3016 14.0317 37.493 18.8965 31.1413L18.8964 31.1412Z" fill="#1E266D"/>
<path d="M66.5001 56.0418C65.7263 56.0328 64.9683 56.261 64.3281 56.6958C63.6879 57.1306 63.1963 57.7511 62.9194 58.4737C62.6425 59.1964 62.5937 59.9865 62.7795 60.7377C62.9652 61.489 63.3767 62.1653 63.9584 62.6756V66.2085C63.9584 66.8826 64.2262 67.5291 64.7029 68.0057C65.1795 68.4824 65.826 68.7502 66.5001 68.7502C67.1742 68.7502 67.8207 68.4824 68.2973 68.0057C68.774 67.5291 69.0417 66.8826 69.0417 66.2085V62.6756C69.6235 62.1653 70.0349 61.489 70.2207 60.7377C70.4065 59.9865 70.3576 59.1964 70.0807 58.4737C69.8039 57.7511 69.3123 57.1306 68.6721 56.6958C68.0319 56.261 67.2739 56.0328 66.5001 56.0418V56.0418ZM79.2084 45.8752V40.7918C79.2084 37.4214 77.8695 34.189 75.4862 31.8057C73.103 29.4224 69.8705 28.0835 66.5001 28.0835C63.1296 28.0835 59.8972 29.4224 57.5139 31.8057C55.1307 34.189 53.7917 37.4214 53.7917 40.7918V45.8752C51.7695 45.8752 49.83 46.6785 48.4001 48.1085C46.9701 49.5384 46.1667 51.4779 46.1667 53.5002V71.2918C46.1667 73.3141 46.9701 75.2536 48.4001 76.6835C49.83 78.1135 51.7695 78.9168 53.7917 78.9168H79.2084C81.2307 78.9168 83.1701 78.1135 84.6001 76.6835C86.0301 75.2536 86.8334 73.3141 86.8334 71.2918V53.5002C86.8334 51.4779 86.0301 49.5384 84.6001 48.1085C83.1701 46.6785 81.2307 45.8752 79.2084 45.8752ZM58.8751 40.7918C58.8751 38.7696 59.6784 36.8301 61.1084 35.4001C62.5384 33.9702 64.4778 33.1668 66.5001 33.1668C68.5224 33.1668 70.4618 33.9702 71.8918 35.4001C73.3217 36.8301 74.1251 38.7696 74.1251 40.7918V45.8752H58.8751V40.7918ZM81.7501 71.2918C81.7501 71.9659 81.4823 72.6124 81.0056 73.0891C80.529 73.5657 79.8825 73.8335 79.2084 73.8335H53.7917C53.1177 73.8335 52.4712 73.5657 51.9945 73.0891C51.5179 72.6124 51.2501 71.9659 51.2501 71.2918V53.5002C51.2501 52.8261 51.5179 52.1796 51.9945 51.7029C52.4712 51.2263 53.1177 50.9585 53.7917 50.9585H79.2084C79.8825 50.9585 80.529 51.2263 81.0056 51.7029C81.4823 52.1796 81.7501 52.8261 81.7501 53.5002V71.2918Z" fill="#1E266D"/>
</svg>
