<svg width="112" height="139" viewBox="0 0 112 139" fill="none" xmlns="http://www.w3.org/2000/svg">
<path d="M28 100.775C26.6155 100.775 25.2622 101.183 24.111 101.946C22.9599 102.71 22.0627 103.795 21.5328 105.065C21.003 106.335 20.8644 107.733 21.1345 109.081C21.4046 110.429 22.0713 111.667 23.0503 112.639C24.0292 113.611 25.2765 114.273 26.6344 114.541C27.9922 114.81 29.3997 114.672 30.6788 114.146C31.9579 113.62 33.0511 112.729 33.8203 111.586C34.5895 110.443 35 109.1 35 107.725C35 105.882 34.2625 104.114 32.9497 102.811C31.637 101.507 29.8565 100.775 28 100.775V100.775ZM56 0C28 0 0 9.5215 0 27.8V111.2C0 129.478 28 139 56 139C84 139 112 129.478 112 111.2V27.8C112 9.5215 84 0 56 0ZM98 111.2C98 116.134 82.04 125.1 56 125.1C29.96 125.1 14 116.134 14 111.2V88.4735C27.1045 94.6587 41.4952 97.683 56 97.3C70.5048 97.683 84.8955 94.6587 98 88.4735V111.2ZM98 69.5C98 74.4345 82.04 83.4 56 83.4C29.96 83.4 14 74.4345 14 69.5V46.7735C27.1045 52.9587 41.4952 55.983 56 55.6C70.5048 55.983 84.8955 52.9587 98 46.7735V69.5ZM56 41.7C29.96 41.7 14 32.7345 14 27.8C14 22.8655 29.96 13.9 56 13.9C82.04 13.9 98 22.8655 98 27.8C98 32.7345 82.04 41.7 56 41.7ZM28 59.075C26.6155 59.075 25.2622 59.4826 24.111 60.2463C22.9599 61.01 22.0627 62.0954 21.5328 63.3653C21.003 64.6353 20.8644 66.0327 21.1345 67.3809C21.4046 68.729 22.0713 69.9674 23.0503 70.9394C24.0292 71.9114 25.2765 72.5733 26.6344 72.8415C27.9922 73.1096 29.3997 72.972 30.6788 72.446C31.9579 71.9199 33.0511 71.0291 33.8203 69.8862C34.5895 68.7433 35 67.3996 35 66.025C35 64.1817 34.2625 62.414 32.9497 61.1106C31.637 59.8072 29.8565 59.075 28 59.075V59.075Z" fill="#1E266D"/>
</svg>
