<svg width="538" height="538" viewBox="0 0 538 538" fill="none" xmlns="http://www.w3.org/2000/svg">
<path d="M269.053 172.875C286.809 172.875 303.002 177.207 317.633 185.872C332.121 194.537 343.698 206.185 352.363 220.815C360.886 235.446 365.218 251.568 365.36 269.182C365.502 286.938 361.241 303.06 352.576 317.548C343.911 332.179 332.263 343.827 317.633 352.491C303.002 361.156 286.809 365.489 269.053 365.489C251.44 365.489 235.317 361.156 220.687 352.491C206.056 343.827 194.408 332.179 185.744 317.548C176.937 303.06 172.604 286.938 172.746 269.182C172.888 251.568 177.292 235.446 185.957 220.815C194.621 206.185 206.269 194.537 220.9 185.872C235.388 177.207 251.44 172.875 269.053 172.875ZM293.13 408.102V537.648H244.977V408.102H293.13ZM153.996 350.148L188.087 384.239L96.0419 476.284L61.951 442.193L153.996 350.148ZM130.133 245.105V293.259H0.587338V245.105H130.133ZM96.0419 62.0795L188.087 154.125L153.996 188.216L61.951 96.1705L96.0419 62.0795ZM293.13 0.715908V130.261H244.977V0.715908H293.13ZM442.065 62.0795L476.156 96.1705L384.11 188.216L350.019 154.125L442.065 62.0795ZM537.519 245.105V293.259H407.974V245.105H537.519ZM384.11 350.148L476.156 442.193L442.065 476.284L350.019 384.239L384.11 350.148Z" fill="black"/>
</svg>
