<?xml version="1.0" standalone="no"?>
<!DOCTYPE svg PUBLIC "-//W3C//DTD SVG 20010904//EN"
 "http://www.w3.org/TR/2001/REC-SVG-20010904/DTD/svg10.dtd">
<svg version="1.0" xmlns="http://www.w3.org/2000/svg"
 width="1000.000000pt" height="1000.000000pt" viewBox="0 0 1000.000000 1000.000000"
 preserveAspectRatio="xMidYMid meet">
<metadata>
Created by potrace 1.15, written by Peter Selinger 2001-2017
</metadata>
<g transform="translate(0.000000,1000.000000) scale(0.100000,-0.100000)"
fill="#000000" stroke="none">
<path d="M3162 8573 l3 -48 195 -6 c107 -3 221 -12 253 -18 123 -26 169 -114
136 -261 -22 -101 -102 -322 -301 -835 -499 -1283 -938 -2351 -1090 -2648
-165 -322 -243 -372 -627 -398 l-181 -13 0 -48 0 -48 1430 0 1430 0 0 45 c0
55 9 52 -215 59 -240 7 -333 35 -370 113 -17 36 -17 39 7 137 14 56 47 160 73
231 110 302 1112 2794 1275 3170 80 185 159 333 199 376 81 84 219 122 494
135 l157 7 0 48 0 49 -1436 0 -1435 0 3 -47z"/>
<path d="M6040 6344 c-396 -54 -749 -208 -1045 -456 -298 -249 -468 -532 -516
-858 -18 -128 -7 -342 25 -465 67 -257 242 -505 487 -688 41 -30 293 -177 560
-325 267 -149 512 -287 545 -308 305 -194 424 -358 424 -585 0 -182 -53 -303
-200 -450 -126 -127 -245 -189 -418 -219 -88 -15 -316 -13 -425 4 -335 54
-629 227 -784 460 -58 86 -153 311 -198 466 -64 221 -70 290 -69 728 l1 392
-56 0 -56 0 -440 -1081 c-242 -594 -441 -1084 -443 -1090 -2 -5 23 -9 56 -9
52 0 62 3 67 20 12 38 122 195 191 273 128 144 274 254 351 264 35 5 71 -11
353 -155 512 -261 660 -323 886 -374 89 -20 127 -22 374 -22 296 -1 389 9 616
59 549 124 1026 456 1224 855 137 273 173 591 99 876 -27 108 -124 301 -202
404 -81 106 -210 231 -308 297 -107 73 -323 198 -707 409 -566 313 -554 306
-663 421 -131 139 -180 250 -187 418 -5 127 14 202 74 293 105 160 336 293
577 332 97 16 395 7 487 -14 252 -58 444 -193 555 -391 48 -85 112 -284 132
-406 18 -114 25 -631 10 -786 l-7 -83 58 0 58 0 362 888 c199 488 364 895 368
905 5 15 -1 17 -57 17 l-64 -1 -60 -90 c-86 -131 -177 -221 -249 -248 -99 -37
-111 -34 -446 110 -336 144 -464 184 -688 213 -155 20 -503 20 -652 0z"/>
</g>
</svg>
